<?xml version="1.0" encoding="UTF-8"?>
<svg width="223px" height="250px" viewBox="0 0 223 250" version="1.1" xmlns="http://www.w3.org/2000/svg" xmlns:xlink="http://www.w3.org/1999/xlink">
    <!-- Generator: Sketch 56 (81588) - https://sketch.com -->
    <title>G Copy</title>
    <desc>Created with Sketch.</desc>
    <g id="Page-2" stroke="none" stroke-width="1" fill="none" fill-rule="evenodd">
        <g id="logo_300x300-copy" transform="translate(-39.000000, -25.000000)" fill="#955712" fill-rule="nonzero">
            <path d="M219.022446,50 L221.266254,32.4137931 L259.23839,32.4137931 L259.23839,107.241379 L208.321207,107.241379 C205.099313,97.0114431 201.417203,89.1954293 197.274768,83.7931034 C187.724152,71.6091345 174.434038,65.5172414 157.404025,65.5172414 C141.524688,65.5172414 128.177041,71.0344276 117.360681,82.0689655 C101.366277,98.5058293 93.369195,121.149281 93.369195,150 C93.369195,179.195548 101.251211,202.068883 117.01548,218.62069 C127.371569,229.425341 140.316486,234.827586 155.850619,234.827586 C173.340903,234.827586 187.83921,227.758691 199.345975,213.62069 C205.789764,205.804559 210.910198,194.827657 214.70743,180.689655 L156.368421,180.689655 L156.368421,141.551724 L262,141.551724 L262,267.931034 L223.164861,267.931034 L219.022446,242.931034 C209.47183,252.931084 200.72682,260.114921 192.787152,264.482759 C180.014642,271.494288 164.768406,275 147.047988,275 C118.166006,275 93.9446283,265.172512 74.3831269,245.517241 C50.7942577,221.838962 39,190.517436 39,151.551724 C39,123.965379 45.0409613,99.770219 57.123065,78.9655172 C67.2490186,61.4941655 80.4816004,48.1034948 96.8212074,38.7931034 C112.815611,29.5976552 130.65083,25 150.327399,25 C170.694374,25 188.932324,30.1148914 205.041796,40.3448276 C208.493825,42.4138034 213.153995,45.6321621 219.022446,50 Z" id="G-Copy"></path>
        </g>
    </g>
</svg>