<?xml version="1.0" encoding="UTF-8"?>
<svg width="223px" height="250px" viewBox="0 0 223 250" version="1.1" xmlns="http://www.w3.org/2000/svg" xmlns:xlink="http://www.w3.org/1999/xlink">
    <!-- Generator: Sketch 56 (81588) - https://sketch.com -->
    <title>G</title>
    <desc>Created with Sketch.</desc>
    <g id="Page-2" stroke="none" stroke-width="1" fill="none" fill-rule="evenodd">
        <path d="M180.022446,25 L182.266254,7.4137931 L220.23839,7.4137931 L220.23839,82.2413793 L169.321207,82.2413793 C166.099313,72.0114431 162.417203,64.1954293 158.274768,58.7931034 C148.724152,46.6091345 135.434038,40.5172414 118.404025,40.5172414 C102.524688,40.5172414 89.1770407,46.0344276 78.3606811,57.0689655 C62.3662771,73.5058293 54.369195,96.149281 54.369195,125 C54.369195,154.195548 62.2512112,177.068883 78.0154799,193.62069 C88.3715688,204.425341 101.316486,209.827586 116.850619,209.827586 C134.340903,209.827586 148.83921,202.758691 160.345975,188.62069 C166.789764,180.804559 171.910198,169.827657 175.70743,155.689655 L117.368421,155.689655 L117.368421,116.551724 L223,116.551724 L223,242.931034 L184.164861,242.931034 L180.022446,217.931034 C170.47183,227.931084 161.72682,235.114921 153.787152,239.482759 C141.014642,246.494288 125.768406,250 108.047988,250 C79.1660063,250 54.9446283,240.172512 35.3831269,220.517241 C11.7942577,196.838962 0,165.517436 0,126.551724 C0,98.9653793 6.04096126,74.770219 18.123065,53.9655172 C28.2490186,36.4941655 41.4816004,23.1034948 57.8212074,13.7931034 C73.8156114,4.59765517 91.6508304,0 111.327399,0 C131.694374,0 149.932324,5.11489138 166.041796,15.3448276 C169.493825,17.4138034 174.153995,20.6321621 180.022446,25 Z" id="G" fill="#F29D41" fill-rule="nonzero"></path>
    </g>
</svg>